<?xml version="1.0" encoding="UTF-8" standalone="no"?>
<svg
   xmlns:dc="http://purl.org/dc/elements/1.1/"
   xmlns:cc="http://creativecommons.org/ns#"
   xmlns:rdf="http://www.w3.org/1999/02/22-rdf-syntax-ns#"
   xmlns:svg="http://www.w3.org/2000/svg"
   xmlns="http://www.w3.org/2000/svg"
   xmlns:sodipodi="http://sodipodi.sourceforge.net/DTD/sodipodi-0.dtd"
   xmlns:inkscape="http://www.inkscape.org/namespaces/inkscape"
   width="50mm"
   height="53mm"
   viewBox="0 0 50 53"
   version="1.1"
   id="svg8"
   inkscape:version="1.0.2 (e86c870879, 2021-01-15)"
   sodipodi:docname="metronome.svg">
  <defs
     id="defs2" />
  <sodipodi:namedview
     id="base"
     pagecolor="#ffffff"
     bordercolor="#666666"
     borderopacity="1.0"
     inkscape:pageopacity="0.0"
     inkscape:pageshadow="2"
     inkscape:zoom="3.3094558"
     inkscape:cx="48.020756"
     inkscape:cy="110.54654"
     inkscape:document-units="mm"
     inkscape:current-layer="g987"
     inkscape:document-rotation="0"
     showgrid="false"
     inkscape:window-width="1920"
     inkscape:window-height="1011"
     inkscape:window-x="1920"
     inkscape:window-y="0"
     inkscape:window-maximized="1" />
  <metadata
     id="metadata5">
    <rdf:RDF>
      <cc:Work
         rdf:about="">
        <dc:format>image/svg+xml</dc:format>
        <dc:type
           rdf:resource="http://purl.org/dc/dcmitype/StillImage" />
        <dc:title></dc:title>
      </cc:Work>
    </rdf:RDF>
  </metadata>
  <g
     inkscape:label="Layer 1"
     inkscape:groupmode="layer"
     id="layer1">
    <g
       id="g987"
       transform="translate(-69.631643,-137.36676)"
       style="stroke-width:1.8;stroke-miterlimit:4;stroke-dasharray:none">
      <path
         style="fill:#b3b3b3;stroke:#000000;stroke-width:0.411033px;stroke-linecap:butt;stroke-linejoin:miter;stroke-opacity:1"
         d="m 82.589876,175.72524 19.070954,0.0795 -2.68113,-9.39531 -13.939059,-0.11686 z"
         id="path846"
         sodipodi:nodetypes="ccccc" />
      <g
         id="g967"
         style="stroke-width:1.8;stroke-miterlimit:4;stroke-dasharray:none"
         transform="translate(0.22383794,-8.1386735)">
        <path
           id="path38"
           style="fill:none;stroke:#000000;stroke-width:6.80315;stroke-linecap:butt;stroke-linejoin:miter;stroke-miterlimit:4;stroke-dasharray:none;stroke-opacity:1"
           transform="matrix(0.26458333,0,0,0.26458333,69.631643,137.36676)"
           d="M 70.367188,36.582031 4.7148438,225.24609 168.54297,225.81445 94.482422,38.433594 c -0.02147,0.01392 -0.04297,0.02762 -0.06641,0.03906 -0.934753,0.456178 -2.06873,-0.205325 -3.103516,-0.310547 -1.245649,-0.126681 -2.490845,-0.256447 -3.736328,-0.384765 0.03707,-0.08589 0.04719,-0.14498 0.07422,-0.220703 -0.07267,-0.0089 -0.189731,-0.02266 -0.259766,-0.03125 -0.505972,-0.05858 -0.854162,-0.09905 -1.308594,-0.152344 -0.611394,0.0314 -1.258026,0.09507 -1.845703,0.05078 -0.08692,0.02956 -0.166376,0.05183 -0.25,0.07813 -0.0299,0.1526 -0.07118,0.300655 -0.130859,0.439453 -0.198234,0.461015 -0.701739,0.353567 -1.341797,-0.0078 -0.762014,0.201181 -1.677779,-0.336642 -2.501953,-0.423828 -4.308865,-0.455825 -4.520071,-0.486734 -6.453125,-0.8125 -1.063717,-0.03961 -2.127655,-0.07553 -3.191406,-0.115235 z" />
      </g>
      <rect
         id="rect40"
         width="2.532613"
         height="49.61977"
         x="90.222099"
         y="139.58189"
         style="stroke-width:1.76642;stroke-miterlimit:4;stroke-dasharray:none" />
      <path
         d=""
         id="path44"
         style="stroke-width:1.8;stroke-miterlimit:4;stroke-dasharray:none" />
      <path
         d="m 92.797944,187.70134 0.0028,-1.07006 9.334836,-10.28875 c 5.13416,-5.6588 9.36854,-10.30066 9.40972,-10.31523 0.0412,-0.0146 0.20623,0.21438 0.36676,0.50878 l 0.29188,0.53528 -9.50652,10.65223 c -5.228585,5.85872 -9.595556,10.74123 -9.70438,10.85002 -0.188433,0.18837 -0.197728,0.14681 -0.195077,-0.87227 z"
         id="path46"
         style="stroke-width:1.8;stroke-miterlimit:4;stroke-dasharray:none" />
      <path
         d=""
         id="path48"
         style="stroke-width:1.8;stroke-miterlimit:4;stroke-dasharray:none" />
      <path
         d="m 110.1494,167.40382 c 1.04516,-1.00323 1.21267,-1.23799 1.92853,-1.98851 1.51279,-1.586 2.17623,-2.41329 4.56643,-5.05205 l 1.87144,-1.9696 0.34201,0.23497 c 0.22181,0.15239 0.63061,0.43962 0.58259,0.52041 -0.19435,0.32702 -7.15774,8.73741 -8.85029,9.36939 -1.32043,0.49303 -0.44071,-1.11461 -0.44071,-1.11461 z"
         id="path50"
         style="stroke-width:1.8;stroke-miterlimit:4;stroke-dasharray:none"
         sodipodi:nodetypes="ssscssss" />
      <rect
         id="rect54"
         width="7.3796387"
         height="1.9871975"
         x="87.882713"
         y="138.0213"
         style="stroke-width:3.93338;stroke-miterlimit:4;stroke-dasharray:none" />
      <rect
         id="rect56-3"
         width="7.9637933"
         height="1.9298738"
         x="87.587868"
         y="141.12033"
         style="stroke-width:4.04044;stroke-miterlimit:4;stroke-dasharray:none" />
      <rect
         id="rect56-6"
         width="7.9637933"
         height="1.9298738"
         x="87.593521"
         y="144.20909"
         style="stroke-width:4.04044;stroke-miterlimit:4;stroke-dasharray:none" />
      <rect
         id="rect56-7"
         width="7.9637933"
         height="1.9298738"
         x="87.580872"
         y="147.66034"
         style="stroke-width:4.04044;stroke-miterlimit:4;stroke-dasharray:none" />
      <rect
         id="rect56-5"
         width="7.9637933"
         height="1.9298738"
         x="87.625015"
         y="152.96017"
         style="stroke-width:4.04044;stroke-miterlimit:4;stroke-dasharray:none" />
      <rect
         id="rect56-35"
         width="8.6073589"
         height="2.0920053"
         x="87.380478"
         y="161.8634"
         style="stroke-width:4.04044;stroke-miterlimit:4;stroke-dasharray:none" />
      <rect
         id="rect56-62"
         width="8.512023"
         height="2.1190252"
         x="87.142113"
         y="172.63138"
         style="stroke-width:4.04044;stroke-miterlimit:4;stroke-dasharray:none" />
      <rect
         id="rect123"
         width="34.619926"
         height="1.1306412"
         x="75.071625"
         y="176.69688"
         style="stroke-width:2.54558;stroke-miterlimit:4;stroke-dasharray:none" />
      <path
         style="fill:#000000;stroke:#000000;stroke-width:0.264583px;stroke-linecap:butt;stroke-linejoin:miter;stroke-opacity:1"
         d="m 115.76142,158.8727 3.43775,3.13394 -0.95937,1.11927 -3.19791,-3.13395 z"
         id="path848" />
    </g>
  </g>
</svg>
