<?xml version="1.0" encoding="UTF-8" standalone="no"?>
<!DOCTYPE svg PUBLIC "-//W3C//DTD SVG 20010904//EN"
              "http://www.w3.org/TR/2001/REC-SVG-20010904/DTD/svg10.dtd">

<svg xmlns="http://www.w3.org/2000/svg"
     width="0.333333in" height="0.333333in"
     viewBox="0 0 100 100">
  <path id="ð…˜ð…¥ð…®"
        fill="#ccc" stroke="#ccc" stroke-width="1"
        d="M 9.77,87.00
           C 7.77,87.00 6.15,86.54 4.89,85.61
             3.63,84.67 3.00,83.26 3.00,81.36
             3.00,79.26 3.59,77.37 4.77,75.69
             5.95,74.01 7.49,72.69 9.39,71.72
             11.30,70.75 13.32,70.27 15.47,70.27
             17.29,70.27 18.74,70.75 19.81,71.72
             20.88,72.69 21.42,74.06 21.42,75.84
             21.42,77.87 20.88,79.73 19.81,81.42
             18.74,83.12 17.32,84.48 15.56,85.48
             13.80,86.50 11.87,87.00 9.77,87.00 Z
           M 21.84,75.00
           C 21.84,75.00 20.00,75.00 20.00,75.00
             20.00,75.00 20.00,24.78 20.00,24.78
             20.00,24.78 21.84,24.78 21.84,24.78
             21.84,24.78 21.84,75.00 21.84,75.00 Z
           M 21.02,24.50
           C 21.02,24.50 22.62,24.50 22.62,24.50
             22.91,26.20 23.23,27.70 23.58,29.00
             23.93,30.30 24.45,31.56 25.12,32.78
             25.81,34.00 26.75,35.31 27.95,36.72
             27.95,36.72 30.44,39.62 30.44,39.62
             31.51,40.84 32.55,42.10 33.55,43.42
             36.52,47.27 38.00,51.25 38.00,55.38
             38.00,59.68 36.18,64.89 32.55,71.00
             32.55,71.00 31.55,71.00 31.55,71.00
             32.74,68.56 33.80,66.12 34.70,63.66
             35.62,61.20 36.08,58.86 36.08,56.62
             36.08,55.51 35.91,54.37 35.58,53.19
             35.25,52.00 34.78,50.79 34.16,49.55
             32.88,47.03 31.08,44.98 28.77,43.39
             26.45,41.80 23.87,41.00 21.02,41.00
             21.02,41.00 21.02,24.50 21.02,24.50 Z" />
</svg>
