<?xml version="1.0" encoding="UTF-8" standalone="no"?>
<!DOCTYPE svg PUBLIC "-//W3C//DTD SVG 20010904//EN"
              "http://www.w3.org/TR/2001/REC-SVG-20010904/DTD/svg10.dtd">

<svg xmlns="http://www.w3.org/2000/svg"
     width="0.1in" height="0.236667in"
     viewBox="0 0 30 71">
  <path id=" ð…Ÿ"
        fill="#ccc" stroke="#ccc" stroke-width="1"
        d="M 23.61,3.44
           C 23.61,3.44 23.61,55.28 23.61,55.28
             23.61,57.05 23.02,58.70 21.84,60.23
             20.66,61.77 19.14,63.00 17.28,63.92
             15.43,64.85 13.46,65.31 11.39,65.31
             9.49,65.31 7.96,64.83 6.80,63.86
             5.64,62.89 5.06,61.58 5.06,59.92
             5.06,58.64 5.43,57.40 6.17,56.20
             6.92,55.01 7.91,53.92 9.12,52.95
             10.34,51.98 11.68,51.21 13.12,50.66
             14.57,50.09 16.00,49.81 17.41,49.81
             19.19,49.81 20.72,50.33 22.00,51.36
             22.00,51.36 22.00,3.44 22.00,3.44
             22.00,3.44 23.61,3.44 23.61,3.44 Z" />
</svg>
