<?xml version="1.0" encoding="UTF-8" standalone="no"?>
<!DOCTYPE svg PUBLIC "-//W3C//DTD SVG 20010904//EN"
              "http://www.w3.org/TR/2001/REC-SVG-20010904/DTD/svg10.dtd">

<svg xmlns="http://www.w3.org/2000/svg"
     width="0.333333in" height="0.333333in"
     viewBox="0 0 100 100">
  <path id="ð…£"
        fill="#ccc" stroke="#ccc" stroke-width="1"
        d="M 41.25,53.06
           C 41.75,54.59 42.00,56.25 42.00,58.03
             42.00,58.73 41.95,59.48 41.84,60.27
             41.74,61.05 41.58,61.87 41.38,62.73
             42.38,64.02 42.88,66.04 42.88,68.81
             42.88,70.71 42.61,72.66 42.09,74.67
             41.57,76.67 40.77,78.46 39.70,80.03
             39.70,80.03 38.72,80.03 38.72,80.03
             40.57,76.19 41.50,72.84 41.50,69.98
             41.50,67.38 40.77,65.08 39.30,63.08
             37.83,61.07 35.64,59.16 32.75,57.34
             32.75,57.34 26.61,53.44 26.61,53.44
             26.61,53.44 26.61,81.39 26.61,81.39
             26.61,83.13 26.02,84.76 24.84,86.27
             23.66,87.78 22.14,89.00 20.28,89.92
             18.43,90.85 16.50,91.31 14.52,91.31
             12.54,91.31 10.98,90.90 9.86,90.08
             8.74,89.26 8.19,87.85 8.19,85.86
             8.19,84.54 8.55,83.28 9.30,82.08
             10.05,80.88 11.02,79.81 12.22,78.86
             13.41,77.91 14.73,77.16 16.16,76.59
             17.58,76.03 19.00,75.75 20.41,75.75
             21.39,75.75 22.28,75.88 23.06,76.12
             23.85,76.38 24.50,76.79 25.00,77.36
             25.00,77.36 25.00,9.55 25.00,9.55
             25.00,9.55 26.61,9.55 26.61,9.55
             26.73,10.98 27.04,12.26 27.53,13.36
             28.03,14.45 28.85,15.62 29.98,16.86
             31.12,18.10 32.71,19.69 34.75,21.62
             36.77,23.53 38.30,25.32 39.33,27.00
             40.37,28.67 41.07,30.29 41.44,31.86
             41.81,33.43 42.00,35.05 42.00,36.70
             42.00,37.82 41.94,38.79 41.81,39.61
             41.69,40.43 41.48,41.26 41.19,42.09
             41.44,43.00 41.63,43.91 41.78,44.83
             41.93,45.73 42.00,46.66 42.00,47.61
             42.00,49.43 41.75,51.25 41.25,53.06 Z
           M 26.86,20.83
           C 26.86,23.52 28.02,25.95 30.33,28.14
             32.27,30.01 33.87,31.59 35.14,32.89
             36.41,34.20 37.46,35.38 38.28,36.45
             39.10,37.53 39.79,38.66 40.33,39.86
             40.45,39.11 40.52,38.41 40.52,37.75
             40.52,35.73 40.13,33.91 39.36,32.30
             38.60,30.68 37.55,29.21 36.23,27.89
             34.95,26.57 33.50,25.34 31.88,24.20
             30.26,23.07 28.59,21.95 26.86,20.83 Z
           M 26.86,31.73
           C 26.86,33.27 27.21,34.70 27.91,36.02
             28.36,36.88 29.07,37.79 30.02,38.75
             30.96,39.70 31.96,40.65 33.00,41.59
             34.38,42.84 35.72,44.21 37.03,45.72
             38.35,47.23 39.45,48.91 40.33,50.77
             40.45,50.03 40.52,49.32 40.52,48.66
             40.52,47.34 40.34,46.09 39.98,44.91
             39.63,43.73 39.12,42.62 38.47,41.59
             37.68,40.27 36.72,39.11 35.61,38.09
             34.49,37.09 33.29,36.12 32.00,35.20
             31.18,34.63 30.33,34.05 29.45,33.45
             28.59,32.85 27.72,32.28 26.86,31.73 Z
           M 26.73,42.53
           C 26.86,44.51 27.41,46.28 28.41,47.83
             29.39,49.38 30.63,50.86 32.12,52.27
             32.12,52.27 36.86,56.66 36.86,56.66
             37.72,57.45 38.44,58.20 39.02,58.91
             39.60,59.61 40.04,60.24 40.33,60.81
             40.37,60.48 40.39,60.21 40.39,60.02
             40.39,59.81 40.39,59.58 40.39,59.33
             40.39,53.09 35.84,47.49 26.73,42.53 Z" />
</svg>
