<?xml version="1.0" encoding="UTF-8" standalone="no"?>
<!DOCTYPE svg PUBLIC "-//W3C//DTD SVG 20010904//EN"
              "http://www.w3.org/TR/2001/REC-SVG-20010904/DTD/svg10.dtd">

<svg xmlns="http://www.w3.org/2000/svg"
     width="0.333333in" height="0.333333in"
     viewBox="0 0 100 100">
  <path id="ð…˜ð…¥ð…¯"
        fill="#ccc" stroke="#ccc" stroke-width="1"
        d="M 14.77,92.00
           C 12.77,92.00 11.15,91.54 9.89,90.61
             8.63,89.67 8.00,88.26 8.00,86.36
             8.00,84.26 8.59,82.37 9.77,80.69
             10.95,79.01 12.49,77.69 14.39,76.72
             16.30,75.75 18.32,75.27 20.47,75.27
             22.29,75.27 23.74,75.75 24.81,76.72
             25.88,77.69 26.42,79.06 26.42,80.84
             26.42,82.87 25.88,84.73 24.81,86.42
             23.74,88.12 22.32,89.48 20.56,90.48
             18.80,91.50 16.87,92.00 14.77,92.00 Z
           M 26.84,80.00
           C 26.84,80.00 25.00,80.00 25.00,80.00
             25.00,80.00 25.00,29.78 25.00,29.78
             25.00,29.78 26.84,29.78 26.84,29.78
             26.84,29.78 26.84,80.00 26.84,80.00 Z
           M 25.00,29.44
           C 25.00,29.44 26.61,29.44 26.61,29.44
             26.77,30.89 27.03,32.10 27.38,33.08
             27.73,34.05 28.18,34.95 28.72,35.77
             29.43,36.80 30.22,37.66 31.11,38.34
             31.99,39.02 32.97,39.90 34.05,40.97
             35.30,42.17 36.53,43.53 37.75,45.06
             38.97,46.59 39.98,48.30 40.78,50.19
             41.59,52.06 42.00,54.16 42.00,56.47
             42.00,57.39 41.94,58.33 41.81,59.30
             41.69,60.27 41.46,61.29 41.12,62.36
             42.21,63.93 42.75,66.21 42.75,69.19
             42.75,71.17 42.49,73.14 41.97,75.11
             41.46,77.07 40.66,78.75 39.58,80.16
             39.58,80.16 38.59,80.16 38.59,80.16
             40.53,76.36 41.50,73.05 41.50,70.23
             41.50,67.54 40.55,65.05 38.66,62.78
             37.41,61.25 35.97,59.89 34.33,58.69
             32.69,57.49 31.05,56.49 29.42,55.69
             27.80,54.88 26.32,54.31 25.00,53.98
             25.00,53.98 25.00,29.44 25.00,29.44 Z
           M 26.98,40.97
           C 26.98,42.01 27.12,43.04 27.39,44.05
             27.66,45.06 28.02,46.02 28.47,46.92
             28.80,47.51 29.45,48.42 30.42,49.66
             31.39,50.90 32.58,52.22 34.00,53.62
             35.49,55.03 36.86,56.42 38.12,57.78
             39.38,59.15 40.12,60.12 40.33,60.69
             40.49,60.07 40.58,59.21 40.58,58.09
             40.58,54.95 39.56,51.99 37.53,49.22
             35.51,46.45 31.99,43.70 26.98,40.97 Z" />
</svg>
