<?xml version="1.0" encoding="UTF-8" standalone="no"?>
<!DOCTYPE svg PUBLIC "-//W3C//DTD SVG 20010904//EN"
              "http://www.w3.org/TR/2001/REC-SVG-20010904/DTD/svg10.dtd">

<svg xmlns="http://www.w3.org/2000/svg"
     width="0.333333in" height="0.333333in"
     viewBox="0 0 100 100">
  <path id="ð…¢"
        fill="#ccc" stroke="#ccc" stroke-width="1"
        d="M 25.00,20.45
           C 25.00,20.45 26.61,20.45 26.61,20.45
             26.73,21.98 27.07,23.33 27.62,24.48
             28.19,25.64 29.05,26.84 30.23,28.08
             31.41,29.32 32.96,30.87 34.88,32.73
             36.81,34.59 38.30,36.34 39.33,38.00
             40.37,39.66 41.07,41.26 41.44,42.81
             41.81,44.36 42.00,45.95 42.00,47.61
             42.00,49.43 41.75,51.25 41.25,53.06
             41.75,54.59 42.00,56.25 42.00,58.03
             42.00,58.73 41.95,59.48 41.84,60.27
             41.74,61.05 41.58,61.87 41.38,62.73
             42.38,64.02 42.88,66.04 42.88,68.81
             42.88,70.71 42.61,72.66 42.09,74.67
             41.57,76.67 40.77,78.46 39.70,80.03
             39.70,80.03 38.72,80.03 38.72,80.03
             40.57,76.19 41.50,72.84 41.50,69.98
             41.50,67.38 40.77,65.08 39.30,63.08
             37.83,61.07 35.64,59.16 32.75,57.34
             32.75,57.34 26.61,53.44 26.61,53.44
             26.61,53.44 26.61,81.39 26.61,81.39
             26.61,83.13 26.02,84.76 24.84,86.27
             23.66,87.78 22.14,89.00 20.28,89.92
             18.43,90.85 16.50,91.31 14.52,91.31
             12.54,91.31 10.98,90.90 9.86,90.08
             8.74,89.26 8.19,87.85 8.19,85.86
             8.19,84.54 8.55,83.28 9.30,82.08
             10.05,80.88 11.02,79.81 12.22,78.86
             13.41,77.91 14.73,77.16 16.16,76.59
             17.58,76.03 19.00,75.75 20.41,75.75
             21.39,75.75 22.28,75.88 23.06,76.12
             23.85,76.38 24.50,76.79 25.00,77.36
             25.00,77.36 25.00,20.45 25.00,20.45 Z
           M 26.86,31.73
           C 26.86,33.27 27.21,34.70 27.91,36.02
             28.36,36.88 29.05,37.79 29.95,38.75
             30.86,39.70 31.85,40.65 32.94,41.59
             34.27,42.79 35.61,44.16 36.95,45.69
             38.30,47.22 39.42,48.91 40.33,50.77
             40.45,50.03 40.52,49.32 40.52,48.66
             40.52,46.05 39.83,43.70 38.47,41.59
             37.06,39.45 35.30,37.60 33.19,36.05
             31.07,34.50 28.96,33.06 26.86,31.73 Z
           M 26.73,42.52
           C 26.86,44.50 27.41,46.26 28.41,47.81
             29.39,49.37 30.63,50.84 32.12,52.25
             32.12,52.25 36.86,56.64 36.86,56.64
             37.72,57.43 38.44,58.18 39.02,58.89
             39.60,59.59 40.04,60.23 40.33,60.80
             40.37,60.46 40.39,60.20 40.39,60.00
             40.39,59.79 40.39,59.56 40.39,59.31
             40.39,53.07 35.84,47.48 26.73,42.52 Z" />
</svg>
